<svg xmlns="http://www.w3.org/2000/svg" width="31.25" height="23.25" viewBox="0 0 31.25 23.25">
  <path id="Union_6" data-name="Union 6" d="M-1445.506-6544.751a2.5,2.5,0,0,1-2.4-2.583v-17.7a.148.148,0,0,1,.255-.114l8.09,8.848a.182.182,0,0,1,0,.227l-5.656,6.475a1.1,1.1,0,0,0,0,1.484.943.943,0,0,0,.69.307.95.95,0,0,0,.692-.307l5.634-6.45a.146.146,0,0,1,.218,0l1.321,1.445a5.977,5.977,0,0,0,4.4,2.01,5.841,5.841,0,0,0,4.311-1.953l1.376-1.5a.147.147,0,0,1,.218,0l5.634,6.45a.949.949,0,0,0,.69.307.949.949,0,0,0,.692-.307,1.1,1.1,0,0,0,0-1.484l-5.656-6.475a.165.165,0,0,1,0-.227l8.083-8.848a.149.149,0,0,1,.255.114v17.7a2.506,2.506,0,0,1-2.4,2.583Zm10.292-9.792L-1447-6567.435a2.242,2.242,0,0,1,1.486-.566h26.465a2.264,2.264,0,0,1,1.488.566l-11.787,12.892a3.947,3.947,0,0,1-2.937,1.323A3.945,3.945,0,0,1-1435.214-6554.543Z" transform="translate(1447.91 6568.001)" fill="#fff"/>
</svg>
