<svg id="Layer_2" data-name="Layer 2" xmlns="http://www.w3.org/2000/svg" width="60" height="60" viewBox="0 0 60 60">
  <g id="Color">
    <path id="_01.Facebook" data-name="01.Facebook" d="M30,0A30,30,0,1,0,60,30,30,30,0,0,0,30,0Zm8.534,19.524c0,.564-.237.789-.789.789-1.062,0-2.124,0-3.182.043s-1.634.525-1.634,1.63c-.024,1.184,0,2.345,0,3.553h4.543c.647,0,.868.221.868.872v4.761c0,.643-.205.845-.857.849H32.889V44.866c0,.687-.213.9-.892.9H27.055c-.6,0-.829-.233-.829-.829v-12.9H22.3c-.616,0-.837-.225-.837-.845V26.408c0-.616.233-.849.841-.849h3.92V22.105A8.641,8.641,0,0,1,27.3,17.661a6.517,6.517,0,0,1,3.525-2.929,8.649,8.649,0,0,1,3.02-.521h3.88c.557,0,.789.245.789.789.02,1.52.02,3.024.016,4.524Z" fill="#fff"/>
  </g>
</svg>
