<svg id="Layer_2" data-name="Layer 2" xmlns="http://www.w3.org/2000/svg" width="60" height="60" viewBox="0 0 60 60">
  <g id="_05.instagram" data-name="05.instagram">
    <circle id="Ellipse_2" data-name="Ellipse 2" cx="4.74" cy="4.74" r="4.74" transform="translate(25.26 25.26)" fill="#fff"/>
    <path id="Path_958" data-name="Path 958" d="M63.684,45.65H51.56a5.92,5.92,0,0,0-5.92,5.92V63.69a5.92,5.92,0,0,0,5.92,5.92H63.684a5.92,5.92,0,0,0,5.92-5.92V51.566A5.92,5.92,0,0,0,63.684,45.65ZM57.622,65.387a7.759,7.759,0,1,1,7.755-7.758A7.759,7.759,0,0,1,57.622,65.387Zm7.8-13.6a1.918,1.918,0,1,1,1.914-1.914A1.918,1.918,0,0,1,65.424,51.787Z" transform="translate(-27.622 -27.628)" fill="#fff"/>
    <path id="Path_959" data-name="Path 959" d="M30,0A30,30,0,1,0,60,30,30,30,0,0,0,30,0ZM45,36.063A8.945,8.945,0,0,1,36.063,45H23.937A8.949,8.949,0,0,1,15,36.063V23.937A8.949,8.949,0,0,1,23.937,15H36.063A8.949,8.949,0,0,1,45,23.937Z" fill="#fff"/>
  </g>
</svg>
