<svg xmlns="http://www.w3.org/2000/svg" width="28.96" height="27.393" viewBox="0 0 28.96 27.393">
  <g id="Group_539" data-name="Group 539" transform="translate(-0.001 -3.002)">
    <path id="Union_2" data-name="Union 2" d="M-1424.587-6469.685a23.464,23.464,0,0,1-23.467-23.467,1.217,1.217,0,0,1,.941-1.184l5.258-1.213a1.221,1.221,0,0,1,1.391.7l2.428,5.665a1.209,1.209,0,0,1-.349,1.417l-3.064,2.508a18.733,18.733,0,0,0,8.962,8.961l2.508-3.063a1.214,1.214,0,0,1,1.417-.349l5.664,2.428a1.229,1.229,0,0,1,.708,1.4l-1.213,5.258a1.212,1.212,0,0,1-1.18.941Zm4.125-13.392a.82.82,0,0,1-.269-.471,14.918,14.918,0,0,0-3.074-6.888,13.2,13.2,0,0,0-4.57-3.507,15.6,15.6,0,0,0-5.984-1.483.828.828,0,0,1-.827-.825.825.825,0,0,1,.825-.827,17.12,17.12,0,0,1,6.692,1.644,14.845,14.845,0,0,1,5.136,3.946,16.547,16.547,0,0,1,3.424,7.638.825.825,0,0,1-.659.963.82.82,0,0,1-.153.015A.828.828,0,0,1-1420.462-6483.077Zm-5.413-.8a.694.694,0,0,1-.225-.393,7.161,7.161,0,0,0-4.042-5.506,8.24,8.24,0,0,0-3.167-.788.688.688,0,0,1-.688-.688.686.686,0,0,1,.687-.688,9.62,9.62,0,0,1,3.757.92,8.546,8.546,0,0,1,4.807,6.5.689.689,0,0,1-.549.8.674.674,0,0,1-.128.012A.693.693,0,0,1-1425.875-6483.88Z" transform="translate(1448.054 6500.08)" fill="#fff"/>
  </g>
</svg>
