<svg id="Layer_2" data-name="Layer 2" xmlns="http://www.w3.org/2000/svg" width="60" height="60" viewBox="0 0 60 60">
  <g id="_04.youtube" data-name="04.youtube">
    <path id="Path_960" data-name="Path 960" d="M66.91,61.44l9.357,5.746-9.357,5.75Z" transform="translate(-40.497 -37.186)" fill="#fff"/>
    <path id="Path_961" data-name="Path 961" d="M30,0A30,30,0,1,0,60,30,30,30,0,0,0,30,0Z" fill="#fff"/>
  </g>
  <g id="Layer_x0020_1" transform="translate(14.028 14.025)">
    <path id="Path_4945" data-name="Path 4945" d="M19.786,17.843c-.6.247-.991,1.194-1.383,1.677a.579.579,0,0,1-.749.162,10.542,10.542,0,0,1-5.262-4.507.644.644,0,0,1,.082-.88,3.564,3.564,0,0,0,.956-1.552c.227-1.328-1.509-5.447-3.8-3.581C3.031,14.538,20.634,28.8,23.811,21.084,24.709,18.9,20.789,17.432,19.786,17.843ZM15.972,29.159a13.171,13.171,0,0,1-6.639-1.795,1.4,1.4,0,0,0-1.073-.141l-4.368,1.2,1.521-3.352a1.394,1.394,0,0,0-.139-1.393,13.182,13.182,0,1,1,10.7,5.481ZM15.972,0A15.972,15.972,0,0,0,2.549,24.633L.122,29.977A1.4,1.4,0,0,0,1.393,31.95c.9,0,5.806-1.542,7.055-1.885A15.974,15.974,0,1,0,15.972,0Z" fill-rule="evenodd"/>
  </g>
</svg>
